<mxfile host="app.diagrams.net" modified="2021-07-06T20:02:07.521Z" agent="5.0 (Windows NT 10.0; Win64; x64) AppleWebKit/537.36 (KHTML, like Gecko) Chrome/91.0.4472.124 Safari/537.36" etag="7Uix9fAunhqFN9fF_pCU" version="14.8.4" type="github">
  <diagram name="Page-1" id="74e2e168-ea6b-b213-b513-2b3c1d86103e">
    <mxGraphModel dx="2031" dy="1061" grid="1" gridSize="10" guides="1" tooltips="1" connect="1" arrows="1" fold="1" page="1" pageScale="1" pageWidth="1100" pageHeight="850" background="none" math="0" shadow="0">
      <root>
        <mxCell id="0" />
        <mxCell id="1" parent="0" />
        <mxCell id="77e6c97f196da883-1" value="Prize Tracker" style="swimlane;html=1;childLayout=stackLayout;startSize=20;rounded=0;shadow=0;labelBackgroundColor=none;strokeWidth=1;fontFamily=Verdana;fontSize=8;align=center;" parent="1" vertex="1">
          <mxGeometry x="74" y="40" width="1170" height="740" as="geometry" />
        </mxCell>
        <mxCell id="77e6c97f196da883-2" value="Lane 1" style="swimlane;html=1;startSize=20;" parent="77e6c97f196da883-1" vertex="1">
          <mxGeometry y="20" width="160" height="720" as="geometry" />
        </mxCell>
        <mxCell id="77e6c97f196da883-8" value="Start" style="rounded=1;whiteSpace=wrap;html=1;shadow=0;labelBackgroundColor=none;strokeWidth=1;fontFamily=Verdana;fontSize=8;align=center;" parent="77e6c97f196da883-2" vertex="1">
          <mxGeometry x="20" y="65" width="100" height="60" as="geometry" />
        </mxCell>
        <mxCell id="77e6c97f196da883-9" value="Disqualified" style="rounded=1;whiteSpace=wrap;html=1;shadow=0;labelBackgroundColor=none;strokeWidth=1;fontFamily=Verdana;fontSize=8;align=center;" parent="77e6c97f196da883-2" vertex="1">
          <mxGeometry x="20" y="155" width="100" height="60" as="geometry" />
        </mxCell>
        <mxCell id="obkC51oocTmBbRvTMfId-51" value="Reconfirm Delivery Address" style="rounded=1;whiteSpace=wrap;html=1;shadow=0;labelBackgroundColor=none;strokeWidth=1;fontFamily=Verdana;fontSize=8;align=center;" vertex="1" parent="77e6c97f196da883-2">
          <mxGeometry x="27" y="410" width="110" height="60" as="geometry" />
        </mxCell>
        <mxCell id="77e6c97f196da883-26" style="edgeStyle=orthogonalEdgeStyle;rounded=1;html=1;labelBackgroundColor=none;startArrow=none;startFill=0;startSize=5;endArrow=classicThin;endFill=1;endSize=5;jettySize=auto;orthogonalLoop=1;strokeWidth=1;fontFamily=Verdana;fontSize=8" parent="77e6c97f196da883-1" source="77e6c97f196da883-8" edge="1">
          <mxGeometry relative="1" as="geometry">
            <mxPoint x="190" y="115" as="targetPoint" />
          </mxGeometry>
        </mxCell>
        <mxCell id="77e6c97f196da883-27" style="edgeStyle=orthogonalEdgeStyle;rounded=1;html=1;labelBackgroundColor=none;startArrow=none;startFill=0;startSize=5;endArrow=classicThin;endFill=1;endSize=5;jettySize=auto;orthogonalLoop=1;strokeWidth=1;fontFamily=Verdana;fontSize=8;exitX=0.5;exitY=1;exitDx=0;exitDy=0;" parent="77e6c97f196da883-1" source="obkC51oocTmBbRvTMfId-1" target="77e6c97f196da883-9" edge="1">
          <mxGeometry relative="1" as="geometry">
            <Array as="points">
              <mxPoint x="230" y="155" />
              <mxPoint x="70" y="155" />
            </Array>
            <mxPoint x="240.0344827586207" y="145" as="sourcePoint" />
          </mxGeometry>
        </mxCell>
        <mxCell id="77e6c97f196da883-3" value="Lane 2" style="swimlane;html=1;startSize=20;" parent="77e6c97f196da883-1" vertex="1">
          <mxGeometry x="160" y="20" width="160" height="720" as="geometry" />
        </mxCell>
        <mxCell id="obkC51oocTmBbRvTMfId-1" value="Valid GIID?" style="rhombus;whiteSpace=wrap;html=1;rounded=0;shadow=0;labelBackgroundColor=none;strokeWidth=1;fontFamily=Verdana;fontSize=8;align=center;" vertex="1" parent="77e6c97f196da883-3">
          <mxGeometry x="30" y="65" width="80" height="60" as="geometry" />
        </mxCell>
        <mxCell id="obkC51oocTmBbRvTMfId-3" value="No" style="text;html=1;resizable=0;autosize=1;align=center;verticalAlign=middle;points=[];fillColor=none;strokeColor=none;rounded=0;" vertex="1" parent="77e6c97f196da883-3">
          <mxGeometry x="65" y="120" width="30" height="20" as="geometry" />
        </mxCell>
        <mxCell id="obkC51oocTmBbRvTMfId-4" value="Yes" style="text;html=1;resizable=0;autosize=1;align=center;verticalAlign=middle;points=[];fillColor=none;strokeColor=none;rounded=0;" vertex="1" parent="77e6c97f196da883-3">
          <mxGeometry x="95" y="70" width="40" height="20" as="geometry" />
        </mxCell>
        <mxCell id="77e6c97f196da883-4" value="Lane 3 (Physical)" style="swimlane;html=1;startSize=20;" parent="77e6c97f196da883-1" vertex="1">
          <mxGeometry x="320" y="20" width="270" height="720" as="geometry" />
        </mxCell>
        <mxCell id="77e6c97f196da883-14" value="Out for Delivery" style="rounded=1;whiteSpace=wrap;html=1;shadow=0;labelBackgroundColor=none;strokeWidth=1;fontFamily=Verdana;fontSize=8;align=center;" parent="77e6c97f196da883-4" vertex="1">
          <mxGeometry x="35" y="500" width="100" height="60" as="geometry" />
        </mxCell>
        <mxCell id="obkC51oocTmBbRvTMfId-7" value="Is Physical?" style="rhombus;whiteSpace=wrap;html=1;rounded=0;shadow=0;labelBackgroundColor=none;strokeWidth=1;fontFamily=Verdana;fontSize=8;align=center;" vertex="1" parent="77e6c97f196da883-4">
          <mxGeometry x="40" y="65" width="80" height="60" as="geometry" />
        </mxCell>
        <mxCell id="obkC51oocTmBbRvTMfId-10" value="Yes" style="text;html=1;resizable=0;autosize=1;align=center;verticalAlign=middle;points=[];fillColor=none;strokeColor=none;rounded=0;" vertex="1" parent="77e6c97f196da883-4">
          <mxGeometry x="81" y="120" width="40" height="20" as="geometry" />
        </mxCell>
        <mxCell id="obkC51oocTmBbRvTMfId-16" value="No" style="text;html=1;resizable=0;autosize=1;align=center;verticalAlign=middle;points=[];fillColor=none;strokeColor=none;rounded=0;" vertex="1" parent="77e6c97f196da883-4">
          <mxGeometry x="106" y="60" width="30" height="20" as="geometry" />
        </mxCell>
        <mxCell id="obkC51oocTmBbRvTMfId-45" style="edgeStyle=orthogonalEdgeStyle;rounded=0;orthogonalLoop=1;jettySize=auto;html=1;exitX=0.5;exitY=1;exitDx=0;exitDy=0;entryX=0.454;entryY=0.029;entryDx=0;entryDy=0;entryPerimeter=0;" edge="1" parent="77e6c97f196da883-4" source="obkC51oocTmBbRvTMfId-25" target="obkC51oocTmBbRvTMfId-34">
          <mxGeometry relative="1" as="geometry" />
        </mxCell>
        <mxCell id="obkC51oocTmBbRvTMfId-46" style="edgeStyle=orthogonalEdgeStyle;rounded=0;orthogonalLoop=1;jettySize=auto;html=1;entryX=0.5;entryY=0;entryDx=0;entryDy=0;" edge="1" parent="77e6c97f196da883-4" source="obkC51oocTmBbRvTMfId-25" target="obkC51oocTmBbRvTMfId-35">
          <mxGeometry relative="1" as="geometry" />
        </mxCell>
        <mxCell id="obkC51oocTmBbRvTMfId-25" value="Is Major or Minor?" style="rhombus;whiteSpace=wrap;html=1;rounded=0;shadow=0;labelBackgroundColor=none;strokeWidth=1;fontFamily=Verdana;fontSize=8;align=center;" vertex="1" parent="77e6c97f196da883-4">
          <mxGeometry x="40" y="160" width="80" height="60" as="geometry" />
        </mxCell>
        <mxCell id="obkC51oocTmBbRvTMfId-32" value="Minor" style="text;html=1;resizable=0;autosize=1;align=center;verticalAlign=middle;points=[];fillColor=none;strokeColor=none;rounded=0;" vertex="1" parent="77e6c97f196da883-4">
          <mxGeometry x="85" y="220" width="50" height="20" as="geometry" />
        </mxCell>
        <mxCell id="obkC51oocTmBbRvTMfId-47" style="edgeStyle=orthogonalEdgeStyle;rounded=0;orthogonalLoop=1;jettySize=auto;html=1;exitX=0.5;exitY=1;exitDx=0;exitDy=0;entryX=0.5;entryY=0;entryDx=0;entryDy=0;" edge="1" parent="77e6c97f196da883-4">
          <mxGeometry relative="1" as="geometry">
            <mxPoint x="80" y="300" as="sourcePoint" />
            <mxPoint x="80" y="320" as="targetPoint" />
          </mxGeometry>
        </mxCell>
        <mxCell id="obkC51oocTmBbRvTMfId-34" value="For Shipping" style="rounded=1;whiteSpace=wrap;html=1;shadow=0;labelBackgroundColor=none;strokeWidth=1;fontFamily=Verdana;fontSize=8;align=center;" vertex="1" parent="77e6c97f196da883-4">
          <mxGeometry x="35" y="240" width="100" height="60" as="geometry" />
        </mxCell>
        <mxCell id="obkC51oocTmBbRvTMfId-54" style="edgeStyle=orthogonalEdgeStyle;rounded=0;orthogonalLoop=1;jettySize=auto;html=1;" edge="1" parent="77e6c97f196da883-4" source="obkC51oocTmBbRvTMfId-35" target="obkC51oocTmBbRvTMfId-39">
          <mxGeometry relative="1" as="geometry" />
        </mxCell>
        <mxCell id="obkC51oocTmBbRvTMfId-35" value="For Awarding" style="rounded=1;whiteSpace=wrap;html=1;shadow=0;labelBackgroundColor=none;strokeWidth=1;fontFamily=Verdana;fontSize=8;align=center;" vertex="1" parent="77e6c97f196da883-4">
          <mxGeometry x="156" y="240" width="100" height="60" as="geometry" />
        </mxCell>
        <mxCell id="obkC51oocTmBbRvTMfId-48" style="edgeStyle=orthogonalEdgeStyle;rounded=0;orthogonalLoop=1;jettySize=auto;html=1;exitX=0.5;exitY=1;exitDx=0;exitDy=0;entryX=0.5;entryY=0;entryDx=0;entryDy=0;" edge="1" parent="77e6c97f196da883-4" source="obkC51oocTmBbRvTMfId-36" target="obkC51oocTmBbRvTMfId-38">
          <mxGeometry relative="1" as="geometry" />
        </mxCell>
        <mxCell id="obkC51oocTmBbRvTMfId-36" value="Handed to Delivery Partner" style="rounded=1;whiteSpace=wrap;html=1;shadow=0;labelBackgroundColor=none;strokeWidth=1;fontFamily=Verdana;fontSize=8;align=center;" vertex="1" parent="77e6c97f196da883-4">
          <mxGeometry x="35" y="320" width="100" height="60" as="geometry" />
        </mxCell>
        <mxCell id="obkC51oocTmBbRvTMfId-49" style="edgeStyle=orthogonalEdgeStyle;rounded=0;orthogonalLoop=1;jettySize=auto;html=1;exitX=0.5;exitY=1;exitDx=0;exitDy=0;entryX=0.5;entryY=0;entryDx=0;entryDy=0;" edge="1" parent="77e6c97f196da883-4" source="obkC51oocTmBbRvTMfId-38" target="77e6c97f196da883-14">
          <mxGeometry relative="1" as="geometry" />
        </mxCell>
        <mxCell id="obkC51oocTmBbRvTMfId-38" value="Valid Delivery Address?" style="rhombus;whiteSpace=wrap;html=1;rounded=0;shadow=0;labelBackgroundColor=none;strokeWidth=1;fontFamily=Verdana;fontSize=8;align=center;" vertex="1" parent="77e6c97f196da883-4">
          <mxGeometry x="45" y="410" width="80" height="60" as="geometry" />
        </mxCell>
        <mxCell id="obkC51oocTmBbRvTMfId-55" style="edgeStyle=orthogonalEdgeStyle;rounded=0;orthogonalLoop=1;jettySize=auto;html=1;exitX=0.5;exitY=1;exitDx=0;exitDy=0;entryX=0.5;entryY=0;entryDx=0;entryDy=0;" edge="1" parent="77e6c97f196da883-4" source="obkC51oocTmBbRvTMfId-39" target="obkC51oocTmBbRvTMfId-41">
          <mxGeometry relative="1" as="geometry" />
        </mxCell>
        <mxCell id="obkC51oocTmBbRvTMfId-39" value="Handled to Sales &lt;br&gt;Team" style="rounded=1;whiteSpace=wrap;html=1;shadow=0;labelBackgroundColor=none;strokeWidth=1;fontFamily=Verdana;fontSize=8;align=center;" vertex="1" parent="77e6c97f196da883-4">
          <mxGeometry x="156" y="320" width="100" height="60" as="geometry" />
        </mxCell>
        <mxCell id="obkC51oocTmBbRvTMfId-41" value="Scheduled" style="rounded=1;whiteSpace=wrap;html=1;shadow=0;labelBackgroundColor=none;strokeWidth=1;fontFamily=Verdana;fontSize=8;align=center;" vertex="1" parent="77e6c97f196da883-4">
          <mxGeometry x="156" y="500" width="100" height="60" as="geometry" />
        </mxCell>
        <mxCell id="obkC51oocTmBbRvTMfId-50" value="Yes" style="text;html=1;resizable=0;autosize=1;align=center;verticalAlign=middle;points=[];fillColor=none;strokeColor=none;rounded=0;" vertex="1" parent="77e6c97f196da883-4">
          <mxGeometry x="85" y="470" width="40" height="20" as="geometry" />
        </mxCell>
        <mxCell id="obkC51oocTmBbRvTMfId-53" value="No" style="text;html=1;resizable=0;autosize=1;align=center;verticalAlign=middle;points=[];fillColor=none;strokeColor=none;rounded=0;" vertex="1" parent="77e6c97f196da883-4">
          <mxGeometry x="10" y="410" width="30" height="20" as="geometry" />
        </mxCell>
        <mxCell id="77e6c97f196da883-5" value="Lane 4 (E-Gifts)" style="swimlane;html=1;startSize=20;" parent="77e6c97f196da883-1" vertex="1">
          <mxGeometry x="590" y="20" width="260" height="720" as="geometry" />
        </mxCell>
        <mxCell id="77e6c97f196da883-15" value="E-Gift Sent" style="rounded=1;whiteSpace=wrap;html=1;shadow=0;labelBackgroundColor=none;strokeWidth=1;fontFamily=Verdana;fontSize=8;align=center;" parent="77e6c97f196da883-5" vertex="1">
          <mxGeometry x="30" y="410" width="100" height="60" as="geometry" />
        </mxCell>
        <mxCell id="obkC51oocTmBbRvTMfId-62" style="edgeStyle=orthogonalEdgeStyle;rounded=0;orthogonalLoop=1;jettySize=auto;html=1;entryX=0.5;entryY=0;entryDx=0;entryDy=0;" edge="1" parent="77e6c97f196da883-5" source="77e6c97f196da883-13" target="obkC51oocTmBbRvTMfId-59">
          <mxGeometry relative="1" as="geometry" />
        </mxCell>
        <mxCell id="77e6c97f196da883-13" value="Is E-Gift" style="rhombus;whiteSpace=wrap;html=1;rounded=0;shadow=0;labelBackgroundColor=none;strokeWidth=1;fontFamily=Verdana;fontSize=8;align=center;" parent="77e6c97f196da883-5" vertex="1">
          <mxGeometry x="40" y="65" width="80" height="60" as="geometry" />
        </mxCell>
        <mxCell id="obkC51oocTmBbRvTMfId-11" value="Yes" style="text;html=1;resizable=0;autosize=1;align=center;verticalAlign=middle;points=[];fillColor=none;strokeColor=none;rounded=0;" vertex="1" parent="77e6c97f196da883-5">
          <mxGeometry x="90" y="125" width="40" height="20" as="geometry" />
        </mxCell>
        <mxCell id="obkC51oocTmBbRvTMfId-9" value="No" style="text;html=1;resizable=0;autosize=1;align=center;verticalAlign=middle;points=[];fillColor=none;strokeColor=none;rounded=0;" vertex="1" parent="77e6c97f196da883-5">
          <mxGeometry x="116" y="65" width="30" height="20" as="geometry" />
        </mxCell>
        <mxCell id="obkC51oocTmBbRvTMfId-63" style="edgeStyle=orthogonalEdgeStyle;rounded=0;orthogonalLoop=1;jettySize=auto;html=1;exitX=0.5;exitY=1;exitDx=0;exitDy=0;entryX=0.5;entryY=0;entryDx=0;entryDy=0;" edge="1" parent="77e6c97f196da883-5" source="obkC51oocTmBbRvTMfId-59" target="77e6c97f196da883-15">
          <mxGeometry relative="1" as="geometry" />
        </mxCell>
        <mxCell id="obkC51oocTmBbRvTMfId-59" value="Is Autopilot?" style="rhombus;whiteSpace=wrap;html=1;rounded=0;shadow=0;labelBackgroundColor=none;strokeWidth=1;fontFamily=Verdana;fontSize=8;align=center;" vertex="1" parent="77e6c97f196da883-5">
          <mxGeometry x="40" y="160" width="80" height="60" as="geometry" />
        </mxCell>
        <mxCell id="obkC51oocTmBbRvTMfId-60" value="Auto Pilot" style="text;html=1;resizable=0;autosize=1;align=center;verticalAlign=middle;points=[];fillColor=none;strokeColor=none;rounded=0;" vertex="1" parent="77e6c97f196da883-5">
          <mxGeometry x="86" y="210" width="70" height="20" as="geometry" />
        </mxCell>
        <mxCell id="obkC51oocTmBbRvTMfId-79" style="edgeStyle=orthogonalEdgeStyle;rounded=0;orthogonalLoop=1;jettySize=auto;html=1;entryX=1;entryY=0.5;entryDx=0;entryDy=0;" edge="1" parent="77e6c97f196da883-5" source="obkC51oocTmBbRvTMfId-78" target="77e6c97f196da883-15">
          <mxGeometry relative="1" as="geometry">
            <Array as="points">
              <mxPoint x="196" y="350" />
            </Array>
          </mxGeometry>
        </mxCell>
        <mxCell id="obkC51oocTmBbRvTMfId-78" value="For Sending" style="rounded=1;whiteSpace=wrap;html=1;shadow=0;labelBackgroundColor=none;strokeWidth=1;fontFamily=Verdana;fontSize=8;align=center;" vertex="1" parent="77e6c97f196da883-5">
          <mxGeometry x="146" y="310" width="100" height="60" as="geometry" />
        </mxCell>
        <mxCell id="obkC51oocTmBbRvTMfId-64" style="edgeStyle=orthogonalEdgeStyle;rounded=0;orthogonalLoop=1;jettySize=auto;html=1;exitX=1;exitY=0.5;exitDx=0;exitDy=0;" edge="1" parent="77e6c97f196da883-5" source="obkC51oocTmBbRvTMfId-59" target="obkC51oocTmBbRvTMfId-78">
          <mxGeometry relative="1" as="geometry">
            <mxPoint x="196" y="240" as="targetPoint" />
          </mxGeometry>
        </mxCell>
        <mxCell id="77e6c97f196da883-6" value="Lane 5 (Cash Prize)" style="swimlane;html=1;startSize=20;" parent="77e6c97f196da883-1" vertex="1">
          <mxGeometry x="850" y="20" width="160" height="720" as="geometry" />
        </mxCell>
        <mxCell id="obkC51oocTmBbRvTMfId-14" value="Is E-Gift" style="rhombus;whiteSpace=wrap;html=1;rounded=0;shadow=0;labelBackgroundColor=none;strokeWidth=1;fontFamily=Verdana;fontSize=8;align=center;" vertex="1" parent="77e6c97f196da883-6">
          <mxGeometry x="36" y="64" width="80" height="60" as="geometry" />
        </mxCell>
        <mxCell id="obkC51oocTmBbRvTMfId-15" value="Yes" style="text;html=1;resizable=0;autosize=1;align=center;verticalAlign=middle;points=[];fillColor=none;strokeColor=none;rounded=0;" vertex="1" parent="77e6c97f196da883-6">
          <mxGeometry x="90" y="127" width="40" height="20" as="geometry" />
        </mxCell>
        <mxCell id="obkC51oocTmBbRvTMfId-17" value="No" style="text;html=1;resizable=0;autosize=1;align=center;verticalAlign=middle;points=[];fillColor=none;strokeColor=none;rounded=0;" vertex="1" parent="77e6c97f196da883-6">
          <mxGeometry x="116" y="67" width="30" height="20" as="geometry" />
        </mxCell>
        <mxCell id="77e6c97f196da883-7" value="Lane 6" style="swimlane;html=1;startSize=20;" parent="77e6c97f196da883-1" vertex="1">
          <mxGeometry x="1010" y="20" width="160" height="720" as="geometry" />
        </mxCell>
        <mxCell id="77e6c97f196da883-24" value="Claimed" style="rounded=1;whiteSpace=wrap;html=1;shadow=0;labelBackgroundColor=none;strokeWidth=1;fontFamily=Verdana;fontSize=8;align=center;" parent="77e6c97f196da883-7" vertex="1">
          <mxGeometry x="36" y="590" width="100" height="60" as="geometry" />
        </mxCell>
        <mxCell id="obkC51oocTmBbRvTMfId-19" value="Return Invalid Prodcut Type" style="rounded=1;whiteSpace=wrap;html=1;shadow=0;labelBackgroundColor=none;strokeWidth=1;fontFamily=Verdana;fontSize=8;align=center;" vertex="1" parent="77e6c97f196da883-7">
          <mxGeometry x="36" y="70" width="100" height="60" as="geometry" />
        </mxCell>
        <mxCell id="obkC51oocTmBbRvTMfId-40" value="Awarded" style="rounded=1;whiteSpace=wrap;html=1;shadow=0;labelBackgroundColor=none;strokeWidth=1;fontFamily=Verdana;fontSize=8;align=center;" vertex="1" parent="77e6c97f196da883-7">
          <mxGeometry x="36" y="500" width="100" height="60" as="geometry" />
        </mxCell>
        <mxCell id="obkC51oocTmBbRvTMfId-80" value="Redeemed" style="rounded=1;whiteSpace=wrap;html=1;shadow=0;labelBackgroundColor=none;strokeWidth=1;fontFamily=Verdana;fontSize=8;align=center;" vertex="1" parent="77e6c97f196da883-7">
          <mxGeometry x="36" y="420" width="100" height="60" as="geometry" />
        </mxCell>
        <mxCell id="obkC51oocTmBbRvTMfId-2" style="edgeStyle=orthogonalEdgeStyle;rounded=0;orthogonalLoop=1;jettySize=auto;html=1;exitX=1;exitY=0.5;exitDx=0;exitDy=0;" edge="1" parent="77e6c97f196da883-1" source="obkC51oocTmBbRvTMfId-1" target="obkC51oocTmBbRvTMfId-7">
          <mxGeometry relative="1" as="geometry">
            <mxPoint x="400" y="169.9999999999999" as="targetPoint" />
          </mxGeometry>
        </mxCell>
        <mxCell id="obkC51oocTmBbRvTMfId-8" value="" style="edgeStyle=orthogonalEdgeStyle;rounded=0;orthogonalLoop=1;jettySize=auto;html=1;" edge="1" parent="77e6c97f196da883-1" source="obkC51oocTmBbRvTMfId-7" target="77e6c97f196da883-13">
          <mxGeometry relative="1" as="geometry">
            <Array as="points">
              <mxPoint x="360" y="130" />
              <mxPoint x="360" y="130" />
            </Array>
          </mxGeometry>
        </mxCell>
        <mxCell id="obkC51oocTmBbRvTMfId-43" style="edgeStyle=orthogonalEdgeStyle;rounded=0;orthogonalLoop=1;jettySize=auto;html=1;exitX=0.5;exitY=1;exitDx=0;exitDy=0;entryX=0;entryY=0.5;entryDx=0;entryDy=0;" edge="1" parent="77e6c97f196da883-1" source="77e6c97f196da883-14" target="77e6c97f196da883-24">
          <mxGeometry relative="1" as="geometry" />
        </mxCell>
        <mxCell id="obkC51oocTmBbRvTMfId-81" style="edgeStyle=orthogonalEdgeStyle;rounded=0;orthogonalLoop=1;jettySize=auto;html=1;entryX=0;entryY=0.5;entryDx=0;entryDy=0;exitX=0.5;exitY=1;exitDx=0;exitDy=0;" edge="1" parent="77e6c97f196da883-1" source="77e6c97f196da883-15" target="obkC51oocTmBbRvTMfId-80">
          <mxGeometry relative="1" as="geometry">
            <mxPoint x="720" y="469.9999999999999" as="sourcePoint" />
          </mxGeometry>
        </mxCell>
        <mxCell id="obkC51oocTmBbRvTMfId-83" style="edgeStyle=orthogonalEdgeStyle;rounded=0;orthogonalLoop=1;jettySize=auto;html=1;" edge="1" parent="77e6c97f196da883-1" source="obkC51oocTmBbRvTMfId-41" target="obkC51oocTmBbRvTMfId-40">
          <mxGeometry relative="1" as="geometry" />
        </mxCell>
        <mxCell id="obkC51oocTmBbRvTMfId-56" style="edgeStyle=orthogonalEdgeStyle;rounded=0;orthogonalLoop=1;jettySize=auto;html=1;exitX=1;exitY=0.5;exitDx=0;exitDy=0;entryX=0;entryY=0.5;entryDx=0;entryDy=0;" edge="1" parent="77e6c97f196da883-1" source="77e6c97f196da883-13" target="obkC51oocTmBbRvTMfId-14">
          <mxGeometry relative="1" as="geometry">
            <mxPoint x="786" y="115.16666666666674" as="targetPoint" />
          </mxGeometry>
        </mxCell>
        <mxCell id="obkC51oocTmBbRvTMfId-84" style="edgeStyle=orthogonalEdgeStyle;rounded=0;orthogonalLoop=1;jettySize=auto;html=1;entryX=0;entryY=0.406;entryDx=0;entryDy=0;entryPerimeter=0;" edge="1" parent="77e6c97f196da883-1" source="obkC51oocTmBbRvTMfId-14" target="obkC51oocTmBbRvTMfId-19">
          <mxGeometry relative="1" as="geometry" />
        </mxCell>
        <mxCell id="obkC51oocTmBbRvTMfId-85" style="edgeStyle=orthogonalEdgeStyle;rounded=0;orthogonalLoop=1;jettySize=auto;html=1;" edge="1" parent="77e6c97f196da883-1" source="obkC51oocTmBbRvTMfId-14" target="obkC51oocTmBbRvTMfId-35">
          <mxGeometry relative="1" as="geometry">
            <Array as="points">
              <mxPoint x="926" y="290" />
            </Array>
          </mxGeometry>
        </mxCell>
        <mxCell id="obkC51oocTmBbRvTMfId-20" style="edgeStyle=orthogonalEdgeStyle;rounded=0;orthogonalLoop=1;jettySize=auto;html=1;" edge="1" parent="1" source="obkC51oocTmBbRvTMfId-7">
          <mxGeometry relative="1" as="geometry">
            <mxPoint x="474" y="219.9999999999999" as="targetPoint" />
          </mxGeometry>
        </mxCell>
        <mxCell id="obkC51oocTmBbRvTMfId-33" value="Major" style="text;html=1;resizable=0;autosize=1;align=center;verticalAlign=middle;points=[];fillColor=none;strokeColor=none;rounded=0;" vertex="1" parent="1">
          <mxGeometry x="520" y="220" width="50" height="20" as="geometry" />
        </mxCell>
        <mxCell id="obkC51oocTmBbRvTMfId-52" style="edgeStyle=orthogonalEdgeStyle;rounded=0;orthogonalLoop=1;jettySize=auto;html=1;exitX=0;exitY=0.5;exitDx=0;exitDy=0;" edge="1" parent="1" source="obkC51oocTmBbRvTMfId-38">
          <mxGeometry relative="1" as="geometry">
            <mxPoint x="210" y="500.16666666666674" as="targetPoint" />
          </mxGeometry>
        </mxCell>
        <mxCell id="obkC51oocTmBbRvTMfId-61" value="Non-Auto Pilot" style="text;html=1;resizable=0;autosize=1;align=center;verticalAlign=middle;points=[];fillColor=none;strokeColor=none;rounded=0;" vertex="1" parent="1">
          <mxGeometry x="790" y="220" width="90" height="20" as="geometry" />
        </mxCell>
      </root>
    </mxGraphModel>
  </diagram>
</mxfile>
